<svg xmlns="http://www.w3.org/2000/svg" viewBox="0 0 64 64">
  <rect width="64" height="64" rx="14" fill="#C40018"/>
  <path d="M10 38c0-4 2.7-6.7 6.7-8l5.3-6c.8-1 2-1.5 3.2-1.5h16c1.3 0 2.6.6 3.5 1.6L50 30l6.6 1.5c2.7.7 4.4 2.7 4.4 5.2v3.6c0 1.1-.9 2-2 2h-3.4a5.3 5.3 0 0 1-10.6 0H19a5.3 5.3 0 0 1-10.6 0H8c-1.1 0-2-.9-2-2v-.3" fill="#fff" transform="translate(-1 -6)"/>
  <circle cx="18" cy="40" r="4" fill="#C40018"/>
  <circle cx="44" cy="40" r="4" fill="#C40018"/>
  <rect x="8" y="50" width="10" height="4" rx="2" fill="#fff" opacity=".9"/>
  <rect x="27" y="50" width="10" height="4" rx="2" fill="#fff" opacity=".9"/>
  <rect x="46" y="50" width="10" height="4" rx="2" fill="#fff" opacity=".9"/>
</svg>
